<svg width="293" height="287" viewBox="0 0 293 287" fill="none" xmlns="http://www.w3.org/2000/svg">
<rect width="293" height="287" rx="10" fill="#52A6FF"/>
<path d="M106.296 106.909V136H99.2788V113.472H99.1083L92.6026 117.449V111.369L99.7759 106.909H106.296ZM124.758 136.71C122.22 136.71 120.033 136.109 118.196 134.906C116.359 133.694 114.943 131.956 113.949 129.693C112.954 127.42 112.462 124.688 112.471 121.497C112.481 118.306 112.978 115.598 113.963 113.372C114.957 111.137 116.368 109.437 118.196 108.273C120.033 107.098 122.22 106.511 124.758 106.511C127.296 106.511 129.484 107.098 131.321 108.273C133.167 109.437 134.588 111.137 135.582 113.372C136.576 115.607 137.069 118.315 137.059 121.497C137.059 124.698 136.562 127.435 135.568 129.707C134.574 131.98 133.158 133.718 131.321 134.92C129.493 136.114 127.306 136.71 124.758 136.71ZM124.758 130.957C126.273 130.957 127.5 130.186 128.437 128.642C129.375 127.089 129.839 124.707 129.829 121.497C129.829 119.395 129.616 117.662 129.19 116.298C128.764 114.925 128.172 113.902 127.414 113.23C126.657 112.558 125.771 112.222 124.758 112.222C123.252 112.222 122.036 112.984 121.108 114.509C120.18 116.024 119.711 118.353 119.701 121.497C119.692 123.628 119.895 125.394 120.312 126.795C120.738 128.197 121.335 129.243 122.102 129.935C122.869 130.616 123.754 130.957 124.758 130.957ZM153.118 136.71C150.58 136.71 148.392 136.109 146.555 134.906C144.718 133.694 143.302 131.956 142.308 129.693C141.314 127.42 140.821 124.688 140.831 121.497C140.84 118.306 141.337 115.598 142.322 113.372C143.316 111.137 144.727 109.437 146.555 108.273C148.392 107.098 150.58 106.511 153.118 106.511C155.655 106.511 157.843 107.098 159.68 108.273C161.527 109.437 162.947 111.137 163.941 113.372C164.936 115.607 165.428 118.315 165.419 121.497C165.419 124.698 164.922 127.435 163.927 129.707C162.933 131.98 161.517 133.718 159.68 134.92C157.852 136.114 155.665 136.71 153.118 136.71ZM153.118 130.957C154.633 130.957 155.859 130.186 156.797 128.642C157.734 127.089 158.198 124.707 158.189 121.497C158.189 119.395 157.975 117.662 157.549 116.298C157.123 114.925 156.531 113.902 155.774 113.23C155.016 112.558 154.131 112.222 153.118 112.222C151.612 112.222 150.395 112.984 149.467 114.509C148.539 116.024 148.07 118.353 148.061 121.497C148.051 123.628 148.255 125.394 148.672 126.795C149.098 128.197 149.694 129.243 150.461 129.935C151.228 130.616 152.114 130.957 153.118 130.957ZM185.738 130.545V129.011C185.738 127.818 185.994 126.715 186.505 125.702C187.026 124.688 187.779 123.874 188.764 123.259C189.749 122.643 190.951 122.335 192.372 122.335C193.821 122.335 195.038 122.643 196.022 123.259C197.017 123.865 197.765 124.674 198.267 125.688C198.778 126.691 199.034 127.799 199.034 129.011V130.545C199.034 131.739 198.778 132.842 198.267 133.855C197.755 134.868 197.002 135.683 196.008 136.298C195.014 136.914 193.802 137.222 192.372 137.222C190.932 137.222 189.72 136.914 188.735 136.298C187.751 135.683 187.002 134.868 186.491 133.855C185.989 132.842 185.738 131.739 185.738 130.545ZM190.27 129.011V130.545C190.27 131.152 190.416 131.734 190.71 132.293C191.013 132.851 191.567 133.131 192.372 133.131C193.196 133.131 193.75 132.861 194.034 132.321C194.318 131.772 194.46 131.18 194.46 130.545V129.011C194.46 128.377 194.323 127.78 194.048 127.222C193.783 126.653 193.224 126.369 192.372 126.369C191.576 126.369 191.027 126.653 190.724 127.222C190.421 127.78 190.27 128.377 190.27 129.011ZM170.653 113.898V112.364C170.653 111.152 170.913 110.044 171.434 109.04C171.965 108.027 172.722 107.217 173.707 106.611C174.692 105.995 175.885 105.688 177.287 105.688C178.735 105.688 179.952 105.995 180.937 106.611C181.931 107.217 182.684 108.027 183.196 109.04C183.707 110.044 183.963 111.152 183.963 112.364V113.898C183.963 115.11 183.702 116.218 183.181 117.222C182.67 118.225 181.917 119.026 180.923 119.622C179.929 120.219 178.717 120.517 177.287 120.517C175.857 120.517 174.645 120.214 173.65 119.608C172.665 119.002 171.917 118.197 171.406 117.193C170.904 116.189 170.653 115.091 170.653 113.898ZM175.227 112.364V113.898C175.227 114.532 175.374 115.124 175.667 115.673C175.97 116.213 176.51 116.483 177.287 116.483C178.12 116.483 178.674 116.213 178.949 115.673C179.233 115.124 179.375 114.532 179.375 113.898V112.364C179.375 111.729 179.242 111.133 178.977 110.574C178.712 110.006 178.148 109.722 177.287 109.722C176.491 109.722 175.947 110.01 175.653 110.588C175.369 111.166 175.227 111.758 175.227 112.364ZM172.798 136L192.798 106.909H196.676L176.676 136H172.798Z" fill="black"/>
<path d="M103.147 165.818L107.542 179.632H107.71L112.114 165.818H116.375L110.108 184H105.154L98.877 165.818H103.147ZM123.169 184.266C121.766 184.266 120.559 183.982 119.547 183.414C118.541 182.84 117.765 182.029 117.221 180.982C116.676 179.928 116.404 178.682 116.404 177.244C116.404 175.841 116.676 174.61 117.221 173.551C117.765 172.491 118.532 171.666 119.52 171.074C120.515 170.482 121.681 170.186 123.018 170.186C123.918 170.186 124.755 170.331 125.531 170.621C126.312 170.905 126.992 171.334 127.572 171.908C128.158 172.482 128.614 173.205 128.94 174.075C129.265 174.939 129.428 175.951 129.428 177.111V178.15H117.913V175.806H125.868C125.868 175.261 125.75 174.779 125.513 174.359C125.276 173.938 124.948 173.61 124.527 173.373C124.113 173.131 123.631 173.009 123.08 173.009C122.506 173.009 121.997 173.142 121.553 173.409C121.115 173.669 120.772 174.021 120.523 174.465C120.275 174.903 120.148 175.391 120.142 175.93V178.158C120.142 178.833 120.266 179.416 120.515 179.907C120.769 180.399 121.127 180.777 121.589 181.044C122.05 181.31 122.598 181.443 123.231 181.443C123.651 181.443 124.036 181.384 124.385 181.266C124.734 181.147 125.033 180.97 125.282 180.733C125.531 180.496 125.72 180.206 125.85 179.863L129.348 180.094C129.17 180.934 128.806 181.668 128.256 182.295C127.712 182.917 127.007 183.402 126.143 183.751C125.285 184.095 124.294 184.266 123.169 184.266ZM131.896 184V170.364H135.562V172.743H135.705C135.953 171.897 136.37 171.257 136.956 170.825C137.542 170.387 138.217 170.168 138.98 170.168C139.17 170.168 139.374 170.18 139.593 170.204C139.812 170.228 140.004 170.26 140.17 170.301V173.657C139.993 173.604 139.747 173.557 139.433 173.515C139.12 173.474 138.833 173.453 138.572 173.453C138.016 173.453 137.519 173.574 137.081 173.817C136.649 174.054 136.305 174.385 136.051 174.811C135.802 175.238 135.678 175.729 135.678 176.285V184H131.896ZM142.125 184V170.364H145.907V184H142.125ZM144.025 168.606C143.463 168.606 142.981 168.419 142.578 168.047C142.182 167.668 141.983 167.215 141.983 166.688C141.983 166.167 142.182 165.721 142.578 165.348C142.981 164.969 143.463 164.779 144.025 164.779C144.588 164.779 145.067 164.969 145.464 165.348C145.866 165.721 146.067 166.167 146.067 166.688C146.067 167.215 145.866 167.668 145.464 168.047C145.067 168.419 144.588 168.606 144.025 168.606ZM156.27 170.364V173.205H147.854V170.364H156.27ZM149.78 184V169.378C149.78 168.39 149.973 167.57 150.357 166.919C150.748 166.268 151.281 165.78 151.955 165.454C152.63 165.129 153.397 164.966 154.255 164.966C154.835 164.966 155.365 165.01 155.844 165.099C156.329 165.188 156.69 165.268 156.927 165.339L156.252 168.18C156.104 168.132 155.921 168.088 155.702 168.047C155.489 168.005 155.27 167.984 155.045 167.984C154.489 167.984 154.101 168.115 153.882 168.375C153.663 168.629 153.553 168.988 153.553 169.449V184H149.78ZM158.581 184V170.364H162.362V184H158.581ZM160.48 168.606C159.918 168.606 159.436 168.419 159.033 168.047C158.637 167.668 158.438 167.215 158.438 166.688C158.438 166.167 158.637 165.721 159.033 165.348C159.436 164.969 159.918 164.779 160.48 164.779C161.043 164.779 161.522 164.969 161.919 165.348C162.321 165.721 162.522 166.167 162.522 166.688C162.522 167.215 162.321 167.668 161.919 168.047C161.522 168.419 161.043 168.606 160.48 168.606ZM171.607 184.266C170.204 184.266 168.996 183.982 167.984 183.414C166.978 182.84 166.203 182.029 165.658 180.982C165.114 179.928 164.842 178.682 164.842 177.244C164.842 175.841 165.114 174.61 165.658 173.551C166.203 172.491 166.969 171.666 167.958 171.074C168.952 170.482 170.118 170.186 171.456 170.186C172.355 170.186 173.193 170.331 173.968 170.621C174.749 170.905 175.43 171.334 176.01 171.908C176.596 172.482 177.052 173.205 177.377 174.075C177.703 174.939 177.865 175.951 177.865 177.111V178.15H166.351V175.806H174.305C174.305 175.261 174.187 174.779 173.95 174.359C173.714 173.938 173.385 173.61 172.965 173.373C172.551 173.131 172.068 173.009 171.518 173.009C170.944 173.009 170.435 173.142 169.991 173.409C169.553 173.669 169.21 174.021 168.961 174.465C168.712 174.903 168.585 175.391 168.579 175.93V178.158C168.579 178.833 168.703 179.416 168.952 179.907C169.207 180.399 169.565 180.777 170.026 181.044C170.488 181.31 171.035 181.443 171.669 181.443C172.089 181.443 172.474 181.384 172.823 181.266C173.172 181.147 173.471 180.97 173.719 180.733C173.968 180.496 174.157 180.206 174.288 179.863L177.786 180.094C177.608 180.934 177.244 181.668 176.694 182.295C176.149 182.917 175.445 183.402 174.581 183.751C173.722 184.095 172.731 184.266 171.607 184.266ZM185.358 184.222C184.323 184.222 183.384 183.956 182.544 183.423C181.71 182.884 181.047 182.094 180.555 181.053C180.07 180.005 179.827 178.721 179.827 177.2C179.827 175.637 180.079 174.338 180.582 173.302C181.085 172.261 181.754 171.482 182.588 170.967C183.429 170.446 184.349 170.186 185.349 170.186C186.113 170.186 186.749 170.316 187.258 170.577C187.773 170.831 188.187 171.151 188.501 171.536C188.821 171.914 189.063 172.287 189.229 172.654H189.344V165.818H193.118V184H189.389V181.816H189.229C189.051 182.195 188.8 182.571 188.474 182.944C188.155 183.31 187.738 183.615 187.223 183.858C186.714 184.101 186.092 184.222 185.358 184.222ZM186.557 181.212C187.166 181.212 187.681 181.047 188.102 180.715C188.528 180.378 188.853 179.907 189.078 179.304C189.309 178.7 189.424 177.993 189.424 177.182C189.424 176.371 189.312 175.667 189.087 175.069C188.862 174.471 188.537 174.009 188.11 173.684C187.684 173.358 187.166 173.196 186.557 173.196C185.935 173.196 185.412 173.364 184.985 173.702C184.559 174.039 184.237 174.507 184.018 175.104C183.799 175.702 183.689 176.395 183.689 177.182C183.689 177.975 183.799 178.676 184.018 179.286C184.243 179.89 184.565 180.363 184.985 180.706C185.412 181.044 185.935 181.212 186.557 181.212Z" fill="black"/>
</svg>
