<svg width="292" height="289" viewBox="0 0 292 289" fill="none" xmlns="http://www.w3.org/2000/svg">
<rect width="292" height="289" rx="10" fill="#DEC3FD"/>
<path d="M95.2401 124L106.973 100.761V100.577H93.2514V94.9091H114.246V100.619L102.47 124H95.2401ZM129.512 124.71C126.974 124.71 124.787 124.109 122.95 122.906C121.112 121.694 119.697 119.956 118.702 117.693C117.708 115.42 117.216 112.688 117.225 109.497C117.235 106.306 117.732 103.598 118.717 101.372C119.711 99.1373 121.122 97.4375 122.95 96.2727C124.787 95.0985 126.974 94.5114 129.512 94.5114C132.05 94.5114 134.237 95.0985 136.075 96.2727C137.921 97.4375 139.342 99.1373 140.336 101.372C141.33 103.607 141.823 106.315 141.813 109.497C141.813 112.698 141.316 115.435 140.322 117.707C139.327 119.98 137.912 121.718 136.075 122.92C134.247 124.114 132.059 124.71 129.512 124.71ZM129.512 118.957C131.027 118.957 132.254 118.186 133.191 116.642C134.129 115.089 134.593 112.707 134.583 109.497C134.583 107.395 134.37 105.662 133.944 104.298C133.518 102.925 132.926 101.902 132.168 101.23C131.411 100.558 130.525 100.222 129.512 100.222C128.006 100.222 126.79 100.984 125.862 102.509C124.933 104.024 124.465 106.353 124.455 109.497C124.446 111.628 124.649 113.394 125.066 114.795C125.492 116.197 126.089 117.243 126.856 117.935C127.623 118.616 128.508 118.957 129.512 118.957ZM157.871 124.71C155.334 124.71 153.146 124.109 151.309 122.906C149.472 121.694 148.056 119.956 147.062 117.693C146.067 115.42 145.575 112.688 145.585 109.497C145.594 106.306 146.091 103.598 147.076 101.372C148.07 99.1373 149.481 97.4375 151.309 96.2727C153.146 95.0985 155.334 94.5114 157.871 94.5114C160.409 94.5114 162.597 95.0985 164.434 96.2727C166.281 97.4375 167.701 99.1373 168.695 101.372C169.69 103.607 170.182 106.315 170.173 109.497C170.173 112.698 169.675 115.435 168.681 117.707C167.687 119.98 166.271 121.718 164.434 122.92C162.606 124.114 160.419 124.71 157.871 124.71ZM157.871 118.957C159.387 118.957 160.613 118.186 161.55 116.642C162.488 115.089 162.952 112.707 162.942 109.497C162.942 107.395 162.729 105.662 162.303 104.298C161.877 102.925 161.285 101.902 160.528 101.23C159.77 100.558 158.885 100.222 157.871 100.222C156.366 100.222 155.149 100.984 154.221 102.509C153.293 104.024 152.824 106.353 152.815 109.497C152.805 111.628 153.009 113.394 153.425 114.795C153.852 116.197 154.448 117.243 155.215 117.935C155.982 118.616 156.868 118.957 157.871 118.957ZM174.256 124V94.9091H181.288V107.21H181.671L191.288 94.9091H199.569L189.256 107.892L199.754 124H191.344L184.1 112.565L181.288 116.116V124H174.256Z" fill="black"/>
<path d="M108.452 154.695C108.328 154.263 108.153 153.882 107.928 153.55C107.704 153.213 107.428 152.929 107.103 152.698C106.783 152.461 106.416 152.281 106.002 152.156C105.594 152.032 105.141 151.97 104.644 151.97C103.714 151.97 102.898 152.201 102.193 152.662C101.495 153.124 100.951 153.796 100.56 154.678C100.169 155.554 99.9739 156.625 99.9739 157.891C99.9739 159.158 100.166 160.235 100.551 161.123C100.936 162.011 101.48 162.688 102.185 163.156C102.889 163.618 103.72 163.848 104.679 163.848C105.549 163.848 106.292 163.694 106.908 163.387C107.529 163.073 108.002 162.632 108.328 162.064C108.659 161.496 108.825 160.824 108.825 160.049L109.606 160.164H104.919V157.27H112.527V159.56C112.527 161.158 112.19 162.531 111.515 163.68C110.84 164.822 109.911 165.704 108.727 166.325C107.544 166.941 106.188 167.249 104.661 167.249C102.957 167.249 101.46 166.873 100.169 166.121C98.879 165.364 97.8729 164.289 97.1508 162.898C96.4346 161.502 96.0766 159.844 96.0766 157.927C96.0766 156.453 96.2896 155.139 96.7158 153.985C97.1478 152.825 97.7515 151.843 98.5269 151.038C99.3022 150.233 100.205 149.62 101.235 149.2C102.264 148.78 103.38 148.57 104.582 148.57C105.611 148.57 106.57 148.721 107.458 149.022C108.346 149.318 109.133 149.739 109.819 150.283C110.512 150.828 111.077 151.476 111.515 152.227C111.953 152.973 112.234 153.796 112.359 154.695H108.452ZM121.558 167.266C120.155 167.266 118.948 166.982 117.936 166.414C116.93 165.84 116.155 165.029 115.61 163.982C115.066 162.928 114.793 161.682 114.793 160.244C114.793 158.841 115.066 157.61 115.61 156.551C116.155 155.491 116.921 154.666 117.909 154.074C118.904 153.482 120.07 153.186 121.407 153.186C122.307 153.186 123.144 153.331 123.92 153.621C124.701 153.905 125.382 154.334 125.962 154.908C126.548 155.482 127.003 156.205 127.329 157.075C127.654 157.939 127.817 158.951 127.817 160.111V161.15H116.303V158.806H124.257C124.257 158.261 124.139 157.779 123.902 157.359C123.665 156.938 123.337 156.61 122.917 156.373C122.502 156.131 122.02 156.009 121.469 156.009C120.895 156.009 120.386 156.142 119.942 156.409C119.504 156.669 119.161 157.021 118.913 157.465C118.664 157.903 118.537 158.391 118.531 158.93V161.158C118.531 161.833 118.655 162.416 118.904 162.907C119.158 163.399 119.516 163.777 119.978 164.044C120.44 164.31 120.987 164.443 121.62 164.443C122.041 164.443 122.425 164.384 122.774 164.266C123.124 164.147 123.423 163.97 123.671 163.733C123.92 163.496 124.109 163.206 124.239 162.863L127.737 163.094C127.56 163.934 127.196 164.668 126.645 165.295C126.101 165.917 125.396 166.402 124.532 166.751C123.674 167.095 122.683 167.266 121.558 167.266ZM134.067 159.116V167H130.285V153.364H133.89V155.77H134.049C134.351 154.976 134.857 154.349 135.567 153.887C136.278 153.42 137.139 153.186 138.151 153.186C139.098 153.186 139.923 153.393 140.628 153.808C141.332 154.222 141.88 154.814 142.27 155.583C142.661 156.347 142.856 157.258 142.856 158.317V167H139.074V158.992C139.08 158.158 138.867 157.507 138.435 157.039C138.003 156.566 137.408 156.329 136.651 156.329C136.142 156.329 135.692 156.438 135.301 156.657C134.916 156.876 134.615 157.196 134.396 157.616C134.182 158.03 134.073 158.531 134.067 159.116ZM154.582 161.194V153.364H158.364V167H154.732V164.523H154.59C154.283 165.322 153.771 165.964 153.055 166.45C152.344 166.935 151.477 167.178 150.453 167.178C149.542 167.178 148.74 166.97 148.047 166.556C147.355 166.142 146.813 165.553 146.423 164.789C146.038 164.026 145.843 163.112 145.837 162.046V153.364H149.619V161.371C149.625 162.176 149.841 162.813 150.267 163.28C150.693 163.748 151.264 163.982 151.98 163.982C152.436 163.982 152.862 163.878 153.259 163.671C153.655 163.458 153.975 163.144 154.218 162.73C154.466 162.315 154.587 161.804 154.582 161.194ZM161.389 167V153.364H165.171V167H161.389ZM163.288 151.606C162.726 151.606 162.244 151.419 161.841 151.047C161.445 150.668 161.247 150.215 161.247 149.688C161.247 149.167 161.445 148.721 161.841 148.348C162.244 147.969 162.726 147.779 163.288 147.779C163.851 147.779 164.33 147.969 164.727 148.348C165.129 148.721 165.33 149.167 165.33 149.688C165.33 150.215 165.129 150.668 164.727 151.047C164.33 151.419 163.851 151.606 163.288 151.606ZM171.982 159.116V167H168.2V153.364H171.805V155.77H171.964C172.266 154.976 172.772 154.349 173.482 153.887C174.193 153.42 175.054 153.186 176.066 153.186C177.013 153.186 177.839 153.393 178.543 153.808C179.247 154.222 179.795 154.814 180.185 155.583C180.576 156.347 180.771 157.258 180.771 158.317V167H176.989V158.992C176.995 158.158 176.782 157.507 176.35 157.039C175.918 156.566 175.323 156.329 174.566 156.329C174.057 156.329 173.607 156.438 173.216 156.657C172.831 156.876 172.53 157.196 172.311 157.616C172.098 158.03 171.988 158.531 171.982 159.116ZM189.966 167.266C188.564 167.266 187.356 166.982 186.344 166.414C185.338 165.84 184.563 165.029 184.018 163.982C183.474 162.928 183.201 161.682 183.201 160.244C183.201 158.841 183.474 157.61 184.018 156.551C184.563 155.491 185.329 154.666 186.318 154.074C187.312 153.482 188.478 153.186 189.815 153.186C190.715 153.186 191.553 153.331 192.328 153.621C193.109 153.905 193.79 154.334 194.37 154.908C194.956 155.482 195.411 156.205 195.737 157.075C196.063 157.939 196.225 158.951 196.225 160.111V161.15H184.711V158.806H192.665C192.665 158.261 192.547 157.779 192.31 157.359C192.073 156.938 191.745 156.61 191.325 156.373C190.91 156.131 190.428 156.009 189.878 156.009C189.304 156.009 188.795 156.142 188.351 156.409C187.913 156.669 187.569 157.021 187.321 157.465C187.072 157.903 186.945 158.391 186.939 158.93V161.158C186.939 161.833 187.063 162.416 187.312 162.907C187.566 163.399 187.924 163.777 188.386 164.044C188.848 164.31 189.395 164.443 190.029 164.443C190.449 164.443 190.833 164.384 191.183 164.266C191.532 164.147 191.831 163.97 192.079 163.733C192.328 163.496 192.517 163.206 192.648 162.863L196.145 163.094C195.968 163.934 195.604 164.668 195.053 165.295C194.509 165.917 193.805 166.402 192.94 166.751C192.082 167.095 191.091 167.266 189.966 167.266ZM88.0821 197.266C86.6853 197.266 85.4838 196.97 84.4777 196.379C83.4774 195.781 82.708 194.952 82.1694 193.893C81.6368 192.833 81.3704 191.614 81.3704 190.235C81.3704 188.838 81.6397 187.613 82.1783 186.56C82.7228 185.5 83.4952 184.675 84.4954 184.083C85.4957 183.485 86.6853 183.186 88.0643 183.186C89.254 183.186 90.2956 183.402 91.1893 183.834C92.083 184.266 92.7903 184.873 93.3111 185.654C93.832 186.435 94.119 187.353 94.1723 188.406H90.6034C90.5028 187.726 90.2364 187.178 89.8044 186.764C89.3782 186.344 88.8189 186.134 88.1265 186.134C87.5405 186.134 87.0286 186.293 86.5906 186.613C86.1585 186.927 85.8212 187.385 85.5785 187.989C85.3359 188.593 85.2145 189.324 85.2145 190.182C85.2145 191.052 85.3329 191.792 85.5696 192.401C85.8123 193.011 86.1526 193.475 86.5906 193.795C87.0286 194.115 87.5405 194.275 88.1265 194.275C88.5585 194.275 88.9462 194.186 89.2895 194.008C89.6387 193.831 89.9257 193.573 90.1506 193.236C90.3814 192.893 90.5324 192.481 90.6034 192.002H94.1723C94.1131 193.043 93.829 193.961 93.32 194.754C92.8169 195.541 92.1215 196.157 91.2337 196.6C90.3459 197.044 89.2954 197.266 88.0821 197.266ZM105.338 191.194V183.364H109.12V197H105.489V194.523H105.347C105.039 195.322 104.528 195.964 103.811 196.45C103.101 196.935 102.234 197.178 101.21 197.178C100.299 197.178 99.4968 196.97 98.8043 196.556C98.1118 196.142 97.5703 195.553 97.1796 194.789C96.7949 194.026 96.5996 193.112 96.5937 192.046V183.364H100.376V191.371C100.382 192.176 100.598 192.813 101.024 193.28C101.45 193.748 102.021 193.982 102.737 193.982C103.193 193.982 103.619 193.878 104.016 193.671C104.412 193.458 104.732 193.144 104.974 192.73C105.223 192.315 105.344 191.804 105.338 191.194ZM123.491 187.252L120.029 187.465C119.97 187.169 119.843 186.903 119.647 186.666C119.452 186.424 119.194 186.231 118.875 186.089C118.561 185.941 118.185 185.867 117.747 185.867C117.161 185.867 116.667 185.991 116.265 186.24C115.862 186.483 115.661 186.808 115.661 187.217C115.661 187.542 115.791 187.817 116.052 188.042C116.312 188.267 116.759 188.448 117.392 188.584L119.86 189.081C121.186 189.353 122.174 189.791 122.826 190.395C123.477 190.999 123.802 191.792 123.802 192.774C123.802 193.668 123.539 194.452 123.012 195.127C122.491 195.801 121.775 196.328 120.864 196.707C119.958 197.08 118.913 197.266 117.73 197.266C115.924 197.266 114.486 196.891 113.415 196.139C112.35 195.381 111.725 194.351 111.542 193.049L115.262 192.854C115.374 193.404 115.646 193.825 116.078 194.115C116.51 194.399 117.064 194.541 117.739 194.541C118.401 194.541 118.934 194.414 119.337 194.159C119.745 193.899 119.952 193.564 119.958 193.156C119.952 192.813 119.807 192.531 119.523 192.312C119.239 192.088 118.801 191.916 118.209 191.798L115.848 191.327C114.516 191.061 113.524 190.599 112.873 189.942C112.228 189.285 111.906 188.448 111.906 187.43C111.906 186.554 112.143 185.799 112.616 185.166C113.095 184.533 113.767 184.044 114.631 183.701C115.501 183.358 116.519 183.186 117.685 183.186C119.408 183.186 120.763 183.55 121.751 184.278C122.746 185.006 123.326 185.997 123.491 187.252ZM133.437 183.364V186.205H125.225V183.364H133.437ZM127.089 180.097H130.871V192.81C130.871 193.159 130.924 193.431 131.031 193.626C131.137 193.816 131.285 193.949 131.475 194.026C131.67 194.103 131.895 194.141 132.149 194.141C132.327 194.141 132.505 194.127 132.682 194.097C132.86 194.061 132.996 194.035 133.091 194.017L133.685 196.831C133.496 196.891 133.23 196.959 132.886 197.036C132.543 197.118 132.126 197.169 131.635 197.186C130.723 197.222 129.924 197.101 129.238 196.822C128.557 196.544 128.027 196.112 127.648 195.526C127.27 194.94 127.083 194.201 127.089 193.307V180.097ZM141.915 197.266C140.536 197.266 139.343 196.973 138.337 196.387C137.337 195.796 136.565 194.973 136.02 193.919C135.476 192.86 135.203 191.632 135.203 190.235C135.203 188.826 135.476 187.595 136.02 186.542C136.565 185.482 137.337 184.66 138.337 184.074C139.343 183.482 140.536 183.186 141.915 183.186C143.294 183.186 144.484 183.482 145.484 184.074C146.49 184.66 147.265 185.482 147.81 186.542C148.354 187.595 148.627 188.826 148.627 190.235C148.627 191.632 148.354 192.86 147.81 193.919C147.265 194.973 146.49 195.796 145.484 196.387C144.484 196.973 143.294 197.266 141.915 197.266ZM141.933 194.337C142.56 194.337 143.084 194.159 143.504 193.804C143.924 193.443 144.241 192.952 144.454 192.33C144.673 191.709 144.783 191.002 144.783 190.208C144.783 189.415 144.673 188.708 144.454 188.087C144.241 187.465 143.924 186.974 143.504 186.613C143.084 186.252 142.56 186.071 141.933 186.071C141.3 186.071 140.767 186.252 140.335 186.613C139.909 186.974 139.586 187.465 139.367 188.087C139.154 188.708 139.048 189.415 139.048 190.208C139.048 191.002 139.154 191.709 139.367 192.33C139.586 192.952 139.909 193.443 140.335 193.804C140.767 194.159 141.3 194.337 141.933 194.337ZM151.086 197V183.364H154.69V185.77H154.85C155.134 184.971 155.608 184.34 156.271 183.879C156.933 183.417 157.727 183.186 158.65 183.186C159.585 183.186 160.381 183.42 161.038 183.887C161.695 184.349 162.133 184.976 162.352 185.77H162.494C162.772 184.988 163.275 184.364 164.003 183.896C164.737 183.423 165.604 183.186 166.604 183.186C167.877 183.186 168.91 183.592 169.703 184.402C170.502 185.207 170.901 186.35 170.901 187.829V197H167.128V188.575C167.128 187.817 166.927 187.249 166.524 186.87C166.122 186.492 165.619 186.302 165.015 186.302C164.329 186.302 163.793 186.521 163.408 186.959C163.024 187.391 162.831 187.962 162.831 188.673V197H159.165V188.495C159.165 187.826 158.972 187.294 158.588 186.897C158.209 186.5 157.709 186.302 157.087 186.302C156.667 186.302 156.288 186.409 155.951 186.622C155.62 186.829 155.356 187.122 155.161 187.501C154.966 187.874 154.868 188.312 154.868 188.815V197H151.086ZM180.103 197.266C178.7 197.266 177.493 196.982 176.481 196.414C175.475 195.84 174.699 195.029 174.155 193.982C173.61 192.928 173.338 191.682 173.338 190.244C173.338 188.841 173.61 187.61 174.155 186.551C174.699 185.491 175.466 184.666 176.454 184.074C177.449 183.482 178.615 183.186 179.952 183.186C180.852 183.186 181.689 183.331 182.465 183.621C183.246 183.905 183.927 184.334 184.507 184.908C185.092 185.482 185.548 186.205 185.874 187.075C186.199 187.939 186.362 188.951 186.362 190.111V191.15H174.847V188.806H182.802C182.802 188.261 182.684 187.779 182.447 187.359C182.21 186.938 181.882 186.61 181.461 186.373C181.047 186.131 180.565 186.009 180.014 186.009C179.44 186.009 178.931 186.142 178.487 186.409C178.049 186.669 177.706 187.021 177.458 187.465C177.209 187.903 177.082 188.391 177.076 188.93V191.158C177.076 191.833 177.2 192.416 177.449 192.907C177.703 193.399 178.061 193.777 178.523 194.044C178.985 194.31 179.532 194.443 180.165 194.443C180.585 194.443 180.97 194.384 181.319 194.266C181.669 194.147 181.967 193.97 182.216 193.733C182.465 193.496 182.654 193.206 182.784 192.863L186.282 193.094C186.105 193.934 185.741 194.668 185.19 195.295C184.646 195.917 183.941 196.402 183.077 196.751C182.219 197.095 181.228 197.266 180.103 197.266ZM188.83 197V183.364H192.497V185.743H192.639C192.887 184.897 193.304 184.257 193.89 183.825C194.476 183.387 195.151 183.168 195.915 183.168C196.104 183.168 196.308 183.18 196.527 183.204C196.746 183.228 196.938 183.26 197.104 183.301V186.657C196.927 186.604 196.681 186.557 196.367 186.515C196.054 186.474 195.767 186.453 195.506 186.453C194.95 186.453 194.453 186.574 194.015 186.817C193.583 187.054 193.239 187.385 192.985 187.811C192.736 188.238 192.612 188.729 192.612 189.285V197H188.83ZM210.405 187.252L206.943 187.465C206.884 187.169 206.757 186.903 206.561 186.666C206.366 186.424 206.109 186.231 205.789 186.089C205.475 185.941 205.099 185.867 204.661 185.867C204.076 185.867 203.581 185.991 203.179 186.24C202.776 186.483 202.575 186.808 202.575 187.217C202.575 187.542 202.705 187.817 202.966 188.042C203.226 188.267 203.673 188.448 204.306 188.584L206.774 189.081C208.1 189.353 209.089 189.791 209.74 190.395C210.391 190.999 210.716 191.792 210.716 192.774C210.716 193.668 210.453 194.452 209.926 195.127C209.405 195.801 208.689 196.328 207.778 196.707C206.872 197.08 205.827 197.266 204.644 197.266C202.839 197.266 201.4 196.891 200.329 196.139C199.264 195.381 198.639 194.351 198.456 193.049L202.176 192.854C202.288 193.404 202.56 193.825 202.992 194.115C203.424 194.399 203.978 194.541 204.653 194.541C205.315 194.541 205.848 194.414 206.251 194.159C206.659 193.899 206.866 193.564 206.872 193.156C206.866 192.813 206.721 192.531 206.437 192.312C206.153 192.088 205.715 191.916 205.123 191.798L202.762 191.327C201.43 191.061 200.439 190.599 199.788 189.942C199.142 189.285 198.82 188.448 198.82 187.43C198.82 186.554 199.057 185.799 199.53 185.166C200.009 184.533 200.681 184.044 201.545 183.701C202.415 183.358 203.433 183.186 204.599 183.186C206.322 183.186 207.677 183.55 208.665 184.278C209.66 185.006 210.24 185.997 210.405 187.252Z" fill="black"/>
</svg>
