<svg width="290" height="291" viewBox="0 0 290 291" fill="none" xmlns="http://www.w3.org/2000/svg">
<rect width="290" height="291" rx="10" fill="#8AE7BC"/>
<path d="M97.1307 140L108.864 116.761V116.577H95.142V110.909H116.136V116.619L104.361 140H97.1307ZM131.033 140.398C129.442 140.398 127.918 140.142 126.46 139.631C125.001 139.11 123.704 138.286 122.567 137.159C121.431 136.023 120.536 134.536 119.883 132.699C119.229 130.852 118.907 128.603 118.917 125.952C118.926 123.556 119.22 121.406 119.798 119.503C120.375 117.59 121.199 115.966 122.269 114.631C123.349 113.295 124.637 112.277 126.133 111.577C127.638 110.866 129.319 110.511 131.175 110.511C133.211 110.511 135.006 110.909 136.559 111.705C138.121 112.491 139.371 113.551 140.309 114.886C141.246 116.212 141.8 117.689 141.971 119.318H135.053C134.845 118.4 134.386 117.704 133.675 117.23C132.975 116.747 132.141 116.506 131.175 116.506C129.395 116.506 128.065 117.277 127.184 118.821C126.313 120.365 125.868 122.429 125.849 125.014H126.033C126.431 124.143 127.004 123.395 127.752 122.77C128.5 122.145 129.357 121.667 130.323 121.335C131.299 120.994 132.331 120.824 133.42 120.824C135.162 120.824 136.701 121.226 138.036 122.031C139.371 122.836 140.418 123.939 141.175 125.341C141.933 126.733 142.307 128.329 142.298 130.128C142.307 132.154 141.834 133.944 140.877 135.497C139.921 137.041 138.595 138.243 136.9 139.105C135.214 139.967 133.259 140.398 131.033 140.398ZM130.991 135C131.853 135 132.624 134.796 133.306 134.389C133.988 133.982 134.523 133.428 134.911 132.727C135.299 132.027 135.489 131.236 135.479 130.355C135.489 129.465 135.299 128.674 134.911 127.983C134.532 127.292 134.002 126.742 133.32 126.335C132.648 125.928 131.876 125.724 131.005 125.724C130.371 125.724 129.779 125.843 129.229 126.08C128.68 126.316 128.202 126.648 127.795 127.074C127.397 127.491 127.085 127.983 126.857 128.551C126.63 129.11 126.512 129.716 126.502 130.369C126.512 131.231 126.71 132.012 127.099 132.713C127.487 133.414 128.017 133.973 128.69 134.389C129.362 134.796 130.129 135 130.991 135ZM158.317 140.71C155.779 140.71 153.591 140.109 151.754 138.906C149.917 137.694 148.501 135.956 147.507 133.693C146.513 131.42 146.02 128.688 146.03 125.497C146.039 122.306 146.536 119.598 147.521 117.372C148.516 115.137 149.927 113.437 151.754 112.273C153.591 111.098 155.779 110.511 158.317 110.511C160.855 110.511 163.042 111.098 164.879 112.273C166.726 113.437 168.146 115.137 169.141 117.372C170.135 119.607 170.627 122.315 170.618 125.497C170.618 128.698 170.121 131.435 169.126 133.707C168.132 135.98 166.716 137.718 164.879 138.92C163.052 140.114 160.864 140.71 158.317 140.71ZM158.317 134.957C159.832 134.957 161.058 134.186 161.996 132.642C162.933 131.089 163.397 128.707 163.388 125.497C163.388 123.395 163.175 121.662 162.749 120.298C162.322 118.925 161.731 117.902 160.973 117.23C160.215 116.558 159.33 116.222 158.317 116.222C156.811 116.222 155.594 116.984 154.666 118.509C153.738 120.024 153.269 122.353 153.26 125.497C153.25 127.628 153.454 129.394 153.871 130.795C154.297 132.197 154.893 133.243 155.661 133.935C156.428 134.616 157.313 134.957 158.317 134.957ZM180.966 134.276L180.994 125.994H181.96L188.097 118.182H195.966L186.847 129.375H185.014L180.966 134.276ZM174.702 140V110.909H181.648V140H174.702ZM188.253 140L182.543 130.938L187.116 126.009L196.278 140H188.253Z" fill="black"/>
<path d="M65.9684 168.988V165.818H80.9009V168.988H75.3345V184H71.5348V168.988H65.9684ZM81.873 184V170.364H85.5396V172.743H85.6816C85.9302 171.897 86.3474 171.257 86.9334 170.825C87.5193 170.387 88.194 170.168 88.9575 170.168C89.1469 170.168 89.3511 170.18 89.5701 170.204C89.7891 170.228 89.9814 170.26 90.1472 170.301V173.657C89.9696 173.604 89.724 173.557 89.4103 173.515C89.0966 173.474 88.8096 173.453 88.5491 173.453C87.9928 173.453 87.4956 173.574 87.0577 173.817C86.6256 174.054 86.2823 174.385 86.0278 174.811C85.7793 175.238 85.655 175.729 85.655 176.285V184H81.873ZM95.6004 184.257C94.7303 184.257 93.955 184.107 93.2744 183.805C92.5937 183.497 92.0551 183.044 91.6586 182.446C91.268 181.843 91.0727 181.091 91.0727 180.191C91.0727 179.434 91.2118 178.798 91.4899 178.283C91.7681 177.768 92.1469 177.353 92.6263 177.04C93.1057 176.726 93.6502 176.489 94.2598 176.33C94.8753 176.17 95.5205 176.057 96.1952 175.992C96.9883 175.909 97.6275 175.832 98.1128 175.761C98.5981 175.684 98.9503 175.572 99.1693 175.424C99.3882 175.276 99.4977 175.057 99.4977 174.767V174.714C99.4977 174.152 99.3202 173.717 98.9651 173.409C98.6159 173.101 98.1187 172.947 97.4736 172.947C96.793 172.947 96.2514 173.098 95.8489 173.4C95.4465 173.696 95.1801 174.069 95.0499 174.518L91.5521 174.234C91.7296 173.406 92.0788 172.69 92.5997 172.086C93.1205 171.476 93.7922 171.009 94.6149 170.683C95.4435 170.352 96.4023 170.186 97.4913 170.186C98.2489 170.186 98.9739 170.275 99.6664 170.452C100.365 170.63 100.983 170.905 101.522 171.278C102.066 171.651 102.495 172.13 102.809 172.716C103.123 173.296 103.28 173.992 103.28 174.803V184H99.693V182.109H99.5865C99.3675 182.535 99.0746 182.911 98.7076 183.237C98.3407 183.556 97.8997 183.808 97.3848 183.991C96.8699 184.169 96.2751 184.257 95.6004 184.257ZM96.6835 181.647C97.2398 181.647 97.731 181.538 98.1572 181.319C98.5833 181.094 98.9177 180.792 99.1604 180.413C99.403 180.035 99.5244 179.605 99.5244 179.126V177.679C99.406 177.756 99.2432 177.827 99.0361 177.892C98.8349 177.951 98.607 178.007 98.3525 178.061C98.098 178.108 97.8435 178.152 97.589 178.194C97.3345 178.229 97.1037 178.262 96.8965 178.292C96.4526 178.357 96.065 178.46 95.7335 178.602C95.4021 178.744 95.1446 178.937 94.9612 179.179C94.7777 179.416 94.6859 179.712 94.6859 180.067C94.6859 180.582 94.8724 180.976 95.2453 181.248C95.624 181.514 96.1034 181.647 96.6835 181.647ZM109.996 176.116V184H106.214V170.364H109.818V172.77H109.978C110.28 171.976 110.786 171.349 111.496 170.887C112.206 170.42 113.068 170.186 114.08 170.186C115.027 170.186 115.852 170.393 116.557 170.808C117.261 171.222 117.808 171.814 118.199 172.583C118.59 173.347 118.785 174.258 118.785 175.317V184H115.003V175.992C115.009 175.158 114.796 174.507 114.364 174.039C113.932 173.566 113.337 173.329 112.579 173.329C112.07 173.329 111.62 173.438 111.23 173.657C110.845 173.876 110.543 174.196 110.324 174.616C110.111 175.03 110.002 175.531 109.996 176.116ZM133.111 174.252L129.649 174.465C129.59 174.169 129.463 173.903 129.267 173.666C129.072 173.424 128.815 173.231 128.495 173.089C128.181 172.941 127.805 172.867 127.367 172.867C126.782 172.867 126.287 172.991 125.885 173.24C125.482 173.483 125.281 173.808 125.281 174.217C125.281 174.542 125.411 174.817 125.672 175.042C125.932 175.267 126.379 175.448 127.012 175.584L129.48 176.081C130.806 176.353 131.795 176.791 132.446 177.395C133.097 177.999 133.422 178.792 133.422 179.774C133.422 180.668 133.159 181.452 132.632 182.127C132.111 182.801 131.395 183.328 130.484 183.707C129.578 184.08 128.533 184.266 127.35 184.266C125.545 184.266 124.106 183.891 123.035 183.139C121.97 182.381 121.345 181.351 121.162 180.049L124.882 179.854C124.994 180.404 125.266 180.825 125.698 181.115C126.131 181.399 126.684 181.541 127.359 181.541C128.021 181.541 128.554 181.414 128.957 181.159C129.365 180.899 129.572 180.564 129.578 180.156C129.572 179.813 129.427 179.531 129.143 179.312C128.859 179.088 128.421 178.916 127.829 178.798L125.468 178.327C124.136 178.061 123.145 177.599 122.494 176.942C121.848 176.285 121.526 175.448 121.526 174.43C121.526 173.554 121.763 172.799 122.236 172.166C122.716 171.533 123.387 171.044 124.251 170.701C125.121 170.358 126.139 170.186 127.305 170.186C129.028 170.186 130.383 170.55 131.371 171.278C132.366 172.006 132.946 172.997 133.111 174.252ZM139.692 184.257C138.822 184.257 138.047 184.107 137.366 183.805C136.686 183.497 136.147 183.044 135.75 182.446C135.36 181.843 135.164 181.091 135.164 180.191C135.164 179.434 135.304 178.798 135.582 178.283C135.86 177.768 136.239 177.353 136.718 177.04C137.197 176.726 137.742 176.489 138.352 176.33C138.967 176.17 139.612 176.057 140.287 175.992C141.08 175.909 141.719 175.832 142.205 175.761C142.69 175.684 143.042 175.572 143.261 175.424C143.48 175.276 143.59 175.057 143.59 174.767V174.714C143.59 174.152 143.412 173.717 143.057 173.409C142.708 173.101 142.211 172.947 141.565 172.947C140.885 172.947 140.343 173.098 139.941 173.4C139.538 173.696 139.272 174.069 139.142 174.518L135.644 174.234C135.821 173.406 136.171 172.69 136.691 172.086C137.212 171.476 137.884 171.009 138.707 170.683C139.535 170.352 140.494 170.186 141.583 170.186C142.341 170.186 143.066 170.275 143.758 170.452C144.457 170.63 145.075 170.905 145.614 171.278C146.158 171.651 146.587 172.13 146.901 172.716C147.215 173.296 147.371 173.992 147.371 174.803V184H143.785V182.109H143.678C143.459 182.535 143.166 182.911 142.799 183.237C142.432 183.556 141.992 183.808 141.477 183.991C140.962 184.169 140.367 184.257 139.692 184.257ZM140.775 181.647C141.332 181.647 141.823 181.538 142.249 181.319C142.675 181.094 143.01 180.792 143.252 180.413C143.495 180.035 143.616 179.605 143.616 179.126V177.679C143.498 177.756 143.335 177.827 143.128 177.892C142.927 177.951 142.699 178.007 142.444 178.061C142.19 178.108 141.935 178.152 141.681 178.194C141.426 178.229 141.195 178.262 140.988 178.292C140.544 178.357 140.157 178.46 139.825 178.602C139.494 178.744 139.236 178.937 139.053 179.179C138.869 179.416 138.778 179.712 138.778 180.067C138.778 180.582 138.964 180.976 139.337 181.248C139.716 181.514 140.195 181.647 140.775 181.647ZM156.467 184.266C155.07 184.266 153.869 183.97 152.862 183.379C151.862 182.781 151.093 181.952 150.554 180.893C150.022 179.833 149.755 178.614 149.755 177.235C149.755 175.838 150.024 174.613 150.563 173.56C151.108 172.5 151.88 171.675 152.88 171.083C153.88 170.485 155.07 170.186 156.449 170.186C157.639 170.186 158.68 170.402 159.574 170.834C160.468 171.266 161.175 171.873 161.696 172.654C162.217 173.435 162.504 174.353 162.557 175.406H158.988C158.888 174.726 158.621 174.178 158.189 173.764C157.763 173.344 157.204 173.134 156.511 173.134C155.925 173.134 155.413 173.293 154.975 173.613C154.543 173.927 154.206 174.385 153.963 174.989C153.721 175.593 153.599 176.324 153.599 177.182C153.599 178.052 153.718 178.792 153.954 179.401C154.197 180.011 154.537 180.475 154.975 180.795C155.413 181.115 155.925 181.275 156.511 181.275C156.943 181.275 157.331 181.186 157.674 181.008C158.023 180.831 158.31 180.573 158.535 180.236C158.766 179.893 158.917 179.481 158.988 179.002H162.557C162.498 180.043 162.214 180.961 161.705 181.754C161.202 182.541 160.506 183.157 159.618 183.6C158.731 184.044 157.68 184.266 156.467 184.266ZM172.232 170.364V173.205H164.02V170.364H172.232ZM165.884 167.097H169.666V179.81C169.666 180.159 169.719 180.431 169.826 180.626C169.932 180.816 170.08 180.949 170.27 181.026C170.465 181.103 170.69 181.141 170.944 181.141C171.122 181.141 171.299 181.127 171.477 181.097C171.655 181.061 171.791 181.035 171.885 181.017L172.48 183.831C172.291 183.891 172.025 183.959 171.681 184.036C171.338 184.118 170.921 184.169 170.429 184.186C169.518 184.222 168.719 184.101 168.032 183.822C167.352 183.544 166.822 183.112 166.443 182.526C166.065 181.94 165.878 181.201 165.884 180.307V167.097ZM174.695 184V170.364H178.477V184H174.695ZM176.595 168.606C176.033 168.606 175.551 168.419 175.148 168.047C174.751 167.668 174.553 167.215 174.553 166.688C174.553 166.167 174.751 165.721 175.148 165.348C175.551 164.969 176.033 164.779 176.595 164.779C177.157 164.779 177.637 164.969 178.033 165.348C178.436 165.721 178.637 166.167 178.637 166.688C178.637 167.215 178.436 167.668 178.033 168.047C177.637 168.419 177.157 168.606 176.595 168.606ZM187.668 184.266C186.289 184.266 185.096 183.973 184.09 183.387C183.09 182.796 182.318 181.973 181.773 180.919C181.229 179.86 180.956 178.632 180.956 177.235C180.956 175.826 181.229 174.595 181.773 173.542C182.318 172.482 183.09 171.66 184.09 171.074C185.096 170.482 186.289 170.186 187.668 170.186C189.047 170.186 190.237 170.482 191.237 171.074C192.243 171.66 193.018 172.482 193.563 173.542C194.107 174.595 194.38 175.826 194.38 177.235C194.38 178.632 194.107 179.86 193.563 180.919C193.018 181.973 192.243 182.796 191.237 183.387C190.237 183.973 189.047 184.266 187.668 184.266ZM187.686 181.337C188.313 181.337 188.837 181.159 189.257 180.804C189.677 180.443 189.994 179.952 190.207 179.33C190.426 178.709 190.536 178.002 190.536 177.208C190.536 176.415 190.426 175.708 190.207 175.087C189.994 174.465 189.677 173.974 189.257 173.613C188.837 173.252 188.313 173.071 187.686 173.071C187.052 173.071 186.52 173.252 186.088 173.613C185.662 173.974 185.339 174.465 185.12 175.087C184.907 175.708 184.8 176.415 184.8 177.208C184.8 178.002 184.907 178.709 185.12 179.33C185.339 179.952 185.662 180.443 186.088 180.804C186.52 181.159 187.052 181.337 187.686 181.337ZM200.621 176.116V184H196.839V170.364H200.443V172.77H200.603C200.905 171.976 201.411 171.349 202.121 170.887C202.831 170.42 203.693 170.186 204.705 170.186C205.652 170.186 206.477 170.393 207.182 170.808C207.886 171.222 208.433 171.814 208.824 172.583C209.215 173.347 209.41 174.258 209.41 175.317V184H205.628V175.992C205.634 175.158 205.421 174.507 204.989 174.039C204.557 173.566 203.962 173.329 203.204 173.329C202.695 173.329 202.245 173.438 201.855 173.657C201.47 173.876 201.168 174.196 200.949 174.616C200.736 175.03 200.627 175.531 200.621 176.116ZM223.736 174.252L220.274 174.465C220.215 174.169 220.088 173.903 219.892 173.666C219.697 173.424 219.44 173.231 219.12 173.089C218.806 172.941 218.43 172.867 217.992 172.867C217.407 172.867 216.912 172.991 216.51 173.24C216.107 173.483 215.906 173.808 215.906 174.217C215.906 174.542 216.036 174.817 216.297 175.042C216.557 175.267 217.004 175.448 217.637 175.584L220.105 176.081C221.431 176.353 222.42 176.791 223.071 177.395C223.722 177.999 224.047 178.792 224.047 179.774C224.047 180.668 223.784 181.452 223.257 182.127C222.736 182.801 222.02 183.328 221.109 183.707C220.203 184.08 219.158 184.266 217.975 184.266C216.17 184.266 214.731 183.891 213.66 183.139C212.595 182.381 211.97 181.351 211.787 180.049L215.507 179.854C215.619 180.404 215.891 180.825 216.323 181.115C216.756 181.399 217.309 181.541 217.984 181.541C218.646 181.541 219.179 181.414 219.582 181.159C219.99 180.899 220.197 180.564 220.203 180.156C220.197 179.813 220.052 179.531 219.768 179.312C219.484 179.088 219.046 178.916 218.454 178.798L216.093 178.327C214.761 178.061 213.77 177.599 213.119 176.942C212.473 176.285 212.151 175.448 212.151 174.43C212.151 173.554 212.388 172.799 212.861 172.166C213.341 171.533 214.012 171.044 214.876 170.701C215.746 170.358 216.764 170.186 217.93 170.186C219.653 170.186 221.008 170.55 221.996 171.278C222.991 172.006 223.571 172.997 223.736 174.252Z" fill="black"/>
</svg>
